<svg xmlns="http://www.w3.org/2000/svg" viewBox="0 0 400 340" width="100%" height="100%">
  <!-- Deep Obsidian Void Canvas -->
  <rect width="100%" height="100%" fill="#050506" rx="16"/>

  <defs>
    <!-- The PyTorch Neon Gradient for the Highlighting -->
    <linearGradient id="glowGrad" x1="0%" y1="100%" x2="100%" y2="0%">
      <stop offset="0%" stop-color="#00A3FF" />
      <stop offset="100%" stop-color="#00FF66" />
    </linearGradient>
    
    <!-- Stable Axis Fade -->
    <linearGradient id="axisFade" x1="0%" y1="0%" x2="100%" y2="100%">
      <stop offset="0%" stop-color="#FFFFFF" stop-opacity="0.25"/>
      <stop offset="100%" stop-color="#FFFFFF" stop-opacity="0.02"/>
    </linearGradient>
  </defs>

  <!-- The 4D/5D Tensor Dot Lattice -->
  <g transform="translate(200, 115)">
    <!-- Base Spatial Coordinate Axes Matrix -->
    <line x1="-80" y1="46" x2="80" y2="-46" stroke="url(#axisFade)" stroke-width="1.2" />
    <line x1="-80" y1="-46" x2="80" y2="46" stroke="url(#axisFade)" stroke-width="1.2" />
    <line x1="0" y1="-85" x2="0" y2="85" stroke="url(#axisFade)" stroke-width="1.2" />

    <!-- Enhanced Outer Tensor Frame (Lit up for crisp visibility) -->
    <polygon points="-80,-46 0,-85 80,-46 80,46 0,85 -80,46" fill="none" stroke="#52525B" stroke-width="1.2" stroke-dasharray="5 4" />

    <!-- BACKGROUND LATENT NODES (Muted Zinc) -->
    <circle cx="-50" cy="-40" r="3.5" fill="#3F3F46" />
    <circle cx="-25" cy="-55" r="3.5" fill="#3F3F46" />
    <circle cx="25" cy="-55" r="3.5" fill="#3F3F46" />
    <circle cx="50" cy="-40" r="3.5" fill="#3F3F46" />
    <circle cx="-65" cy="0" r="3.5" fill="#27272A" />
    <circle cx="65" cy="0" r="3.5" fill="#27272A" />

    <!-- ACTIVE HIGHLIGHTED TENSOR NODES (The Glow Stack) -->
    <!-- Matrix Path Interconnections -->
    <polyline points="-40,40 -15,20 20,45 50,20 15,55 -20,35 -40,40" fill="none" stroke="url(#glowGrad)" stroke-width="1.5" stroke-opacity="0.4" />
    
    <!-- Highlighted Vector Cluster Elements -->
    <circle cx="-40" cy="40" r="4.5" fill="#00A3FF" />
    <circle cx="-15" cy="20" r="5" fill="#FFFFFF" />
    <circle cx="20" cy="45" r="6" fill="url(#glowGrad)" />
    <circle cx="50" cy="20" r="7" fill="#00FF66" />
    <circle cx="15" cy="55" r="5" fill="url(#glowGrad)" />
    <circle cx="-20" cy="35" r="4" fill="#00A3FF" />
    
    <!-- Outer Orbiting 5D Projection Nodes -->
    <circle cx="45" cy="60" r="3.5" fill="#00FF66" opacity="0.7"/>
    <circle cx="-55" cy="20" r="3.5" fill="#00A3FF" opacity="0.7"/>

    <!-- Origin Precision Anchor -->
    <circle cx="0" cy="0" r="5" fill="#050506" stroke="#00FF66" stroke-width="2"/>
  </g>

  <!-- Typography: Centered Heavy Capital Structure -->
  <text x="200" y="278" 
        fill="#FAFAFA" 
        text-anchor="middle"
        font-family="system-ui, -apple-system, sans-serif" 
        font-size="40" 
        font-weight="900" 
        letter-spacing="-0.05em">AlgoFarm</text>
</svg>
