<svg xmlns="http://www.w3.org/2000/svg" viewBox="0 0 800 250" width="100%" height="100%">
  <defs>
    <linearGradient id="leafGrad" x1="0%" y1="100%" x2="100%" y2="0%">
      <stop offset="0%" stop-color="#059669" />
      <stop offset="50%" stop-color="#10B981" />
      <stop offset="100%" stop-color="#34D399" />
    </linearGradient>
    
    <linearGradient id="gridGrad" x1="0%" y1="0%" x2="100%" y2="100%">
      <stop offset="0%" stop-color="#34D399" stop-opacity="0.8"/>
      <stop offset="100%" stop-color="#047857" stop-opacity="0.2"/>
    </linearGradient>
  </defs>

  <rect width="100%" height="100%" rx="16" fill="#0F172A"/>

  <g transform="translate(40, 35)">
    <path d="M 30,130 L 150,130 M 45,100 L 135,100 M 60,70 L 120,70" stroke="url(#gridGrad)" stroke-width="3" stroke-dasharray="4 4" />
    <circle cx="30" cy="130" r="4" fill="#059669" />
    <circle cx="150" cy="130" r="4" fill="#059669" />
    <circle cx="45" cy="100" r="4" fill="#10B981" />
    <circle cx="135" cy="100" r="4" fill="#10B981" />
    
    <path d="M 90,30 
             C 140,70 145,140 90,160 
             C 35,140 40,70 90,30 Z" 
          fill="url(#leafGrad)" />
          
    <path d="M 90,40 L 90,140" stroke="#0F172A" stroke-width="4" stroke-linecap="round" />
    <path d="M 90,70 L 115,55" stroke="#0F172A" stroke-width="3.5" stroke-linecap="round" />
    <path d="M 90,95 L 65,80" stroke="#0F172A" stroke-width="3.5" stroke-linecap="round" />
    <path d="M 90,120 L 115,105" stroke="#0F172A" stroke-width="3.5" stroke-linecap="round" />
  </g>

  <g transform="translate(240, 145)">
    <text font-family="system-ui, -apple-system, sans-serif" font-weight="800" font-size="76" fill="#FFFFFF" letter-spacing="-1">algo</text>
    <text x="172" font-family="system-ui, -apple-system, sans-serif" font-weight="300" font-size="76" fill="#34D399" letter-spacing="-1">farm</text>
    <text y="40" font-family="monospace" font-size="16" fill="#94A3B8" letter-spacing="4">FAST. BARE-METAL. RUST.</text>
  </g>
</svg>
